<svg width="228" height="228" viewBox="0 0 228 228" fill="none" xmlns="http://www.w3.org/2000/svg">
<g filter="url(#filter0_d_16_14)">
<path d="M83.9966 37.5708C82.8079 37.5727 81.6456 37.2213 80.6571 36.5612C79.6686 35.9012 78.8985 34.9622 78.4447 33.8636L69.5161 12.3111C68.9058 10.8387 68.9054 9.18411 69.515 7.71137C70.1246 6.23863 71.2943 5.06837 72.7667 4.45804C73.4958 4.15584 74.2773 4.00019 75.0665 4C75.8557 3.99981 76.6373 4.15506 77.3665 4.45691C78.8392 5.06651 80.0095 6.2362 80.6198 7.70864L89.5484 29.2611C89.927 30.1741 90.0745 31.1665 89.9778 32.1501C89.8811 33.1338 89.5432 34.0784 88.9941 34.9003C88.445 35.7221 87.7017 36.3958 86.8299 36.8616C85.9582 37.3275 84.985 37.5711 83.9966 37.5708ZM152.932 204C151.743 204.002 150.581 203.65 149.592 202.99C148.604 202.33 147.834 201.391 147.38 200.293L138.452 178.74C137.841 177.268 137.841 175.613 138.45 174.141C139.06 172.668 140.23 171.498 141.702 170.887C143.175 170.277 144.829 170.276 146.302 170.886C147.775 171.496 148.945 172.665 149.555 174.138L158.484 195.69C158.862 196.603 159.01 197.596 158.913 198.579C158.817 199.563 158.479 200.508 157.93 201.329C157.38 202.151 156.637 202.825 155.765 203.291C154.894 203.757 153.92 204 152.932 204ZM20.0122 148.938C18.6216 148.939 17.2738 148.458 16.1985 147.576C15.1232 146.694 14.3871 145.467 14.1156 144.103C13.8441 142.739 14.0541 141.323 14.7097 140.097C15.3653 138.871 16.426 137.91 17.7109 137.378L39.2634 128.449C40.7358 127.839 42.3904 127.839 43.8631 128.448C45.3359 129.058 46.5061 130.227 47.1165 131.7C47.7268 133.172 47.7272 134.827 47.1176 136.3C46.508 137.772 45.3383 138.943 43.8659 139.553L22.3134 148.482C21.5837 148.783 20.8018 148.938 20.0122 148.938ZM186.435 80.0088C185.045 80.0096 183.697 79.5281 182.622 78.6464C181.546 77.7646 180.81 76.5372 180.539 75.1734C180.267 73.8096 180.477 72.3938 181.133 71.1675C181.789 69.9411 182.849 68.9802 184.134 68.4485L205.687 59.5198C207.145 58.9813 208.755 59.0282 210.179 59.6507C211.603 60.2732 212.731 61.4229 213.326 62.8588C213.922 64.2947 213.938 65.9053 213.371 67.3529C212.805 68.8004 211.701 69.9726 210.289 70.6235L188.737 79.5521C188.006 79.851 187.225 80.006 186.435 80.0088ZM143.997 37.5708C143.009 37.5701 142.037 37.3258 141.166 36.8595C140.295 36.3933 139.553 35.7195 139.004 34.8978C138.456 34.076 138.118 33.1318 138.022 32.1486C137.926 31.1654 138.073 30.1737 138.452 29.2611L147.38 7.70864C147.99 6.2362 149.161 5.06651 150.633 4.45691C152.106 3.84731 153.761 3.84771 155.233 4.45804C156.706 5.06837 157.875 6.23863 158.485 7.71137C159.095 9.18411 159.094 10.8387 158.484 12.3111L149.555 33.8636C149.1 34.9622 148.328 35.9009 147.339 36.5609C146.35 37.2208 145.187 37.5723 143.997 37.5708ZM75.062 204C74.0741 203.999 73.1016 203.755 72.2306 203.289C71.3597 202.822 70.6172 202.149 70.0688 201.327C69.5204 200.505 69.183 199.561 69.0866 198.578C68.9902 197.595 69.1378 196.603 69.5161 195.69L78.4447 174.138C79.0551 172.665 80.2253 171.496 81.6981 170.886C83.1708 170.276 84.8254 170.277 86.2978 170.887C87.7703 171.498 88.94 172.668 89.5496 174.141C90.1592 175.613 90.1588 177.268 89.5484 178.74L80.6198 200.293C79.6584 202.6 77.4233 204 75.062 204ZM41.5586 80.0088C40.7709 80.0096 39.9908 79.8544 39.2634 79.5521L17.7109 70.6235C16.2385 70.0132 15.0688 68.8429 14.4592 67.3702C13.8496 65.8975 13.85 64.2429 14.4603 62.7704C15.0706 61.298 16.2409 60.1283 17.7136 59.5187C19.1864 58.9091 20.841 58.9095 22.3134 59.5198L43.8659 68.4485C45.1512 68.9804 46.2122 69.9419 46.8678 71.1688C47.5233 72.3957 47.7328 73.8121 47.4606 75.1763C47.1883 76.5405 46.4511 77.7679 45.3748 78.6492C44.2985 79.5305 42.9497 80.011 41.5586 80.0088ZM207.982 148.938C207.194 148.939 206.414 148.784 205.687 148.482L184.134 139.553C183.405 139.251 182.743 138.808 182.185 138.25C181.627 137.691 181.184 137.029 180.882 136.3C180.581 135.57 180.425 134.789 180.425 134C180.426 133.21 180.581 132.429 180.884 131.7C181.186 130.971 181.629 130.308 182.187 129.75C182.745 129.192 183.408 128.75 184.137 128.448C184.866 128.146 185.648 127.991 186.437 127.991C187.226 127.991 188.008 128.147 188.737 128.449L210.289 137.378C211.574 137.91 212.635 138.871 213.291 140.098C213.947 141.325 214.156 142.742 213.884 144.106C213.611 145.47 212.874 146.697 211.798 147.579C210.722 148.46 209.373 148.94 207.982 148.938Z" fill="#FFAA45"/>
</g>
<g filter="url(#filter1_d_16_14)">
<path d="M114 164.933C147.652 164.933 174.933 137.652 174.933 104C174.933 70.3477 147.652 43.0671 114 43.0671C80.3477 43.0671 53.0671 70.3477 53.0671 104C53.0671 137.652 80.3477 164.933 114 164.933Z" fill="#FFAA45"/>
</g>
<path d="M113.965 54.729C123.716 54.7113 133.252 57.5944 141.359 63.0116C149.466 68.4287 155.779 76.1351 159.494 85.1503C161.987 91.122 163.271 97.5288 163.271 104C163.271 110.471 161.987 116.878 159.494 122.85C157.034 128.835 153.411 134.273 148.836 138.849C144.26 143.425 138.822 147.048 132.836 149.508C126.87 151.992 120.471 153.271 114.008 153.271C104.257 153.29 94.7202 150.408 86.6125 144.991C78.5048 139.573 72.1923 131.866 68.4785 122.85C58.0855 97.7552 70.042 68.8912 95.1366 58.4922C101.103 56.0078 107.502 54.7288 113.965 54.729Z" fill="#FFDA69"/>
<defs>
<filter id="filter0_d_16_14" x="0.8" y="0.8" width="226.4" height="226.4" filterUnits="userSpaceOnUse" color-interpolation-filters="sRGB">
<feFlood flood-opacity="0" result="BackgroundImageFix"/>
<feColorMatrix in="SourceAlpha" type="matrix" values="0 0 0 0 0 0 0 0 0 0 0 0 0 0 0 0 0 0 127 0" result="hardAlpha"/>
<feOffset dy="10"/>
<feGaussianBlur stdDeviation="6.6"/>
<feComposite in2="hardAlpha" operator="out"/>
<feColorMatrix type="matrix" values="0 0 0 0 0 0 0 0 0 0 0 0 0 0 0 0 0 0 0.25 0"/>
<feBlend mode="normal" in2="BackgroundImageFix" result="effect1_dropShadow_16_14"/>
<feBlend mode="normal" in="SourceGraphic" in2="effect1_dropShadow_16_14" result="shape"/>
</filter>
<filter id="filter1_d_16_14" x="39.8671" y="39.8671" width="148.266" height="148.266" filterUnits="userSpaceOnUse" color-interpolation-filters="sRGB">
<feFlood flood-opacity="0" result="BackgroundImageFix"/>
<feColorMatrix in="SourceAlpha" type="matrix" values="0 0 0 0 0 0 0 0 0 0 0 0 0 0 0 0 0 0 127 0" result="hardAlpha"/>
<feOffset dy="10"/>
<feGaussianBlur stdDeviation="6.6"/>
<feComposite in2="hardAlpha" operator="out"/>
<feColorMatrix type="matrix" values="0 0 0 0 0 0 0 0 0 0 0 0 0 0 0 0 0 0 0.25 0"/>
<feBlend mode="normal" in2="BackgroundImageFix" result="effect1_dropShadow_16_14"/>
<feBlend mode="normal" in="SourceGraphic" in2="effect1_dropShadow_16_14" result="shape"/>
</filter>
</defs>
</svg>
